<svg xmlns="http://www.w3.org/2000/svg" width="52.364" height="52.364" viewBox="0 0 52.364 52.364">
  <g id="Linkedin" transform="translate(0 0)">
    <path id="Tracé_1" data-name="Tracé 1" d="M12.818,3H32.463a9.81,9.81,0,0,1,9.809,9.809V32.465a9.809,9.809,0,0,1-9.809,9.807H12.809A9.81,9.81,0,0,1,3,32.463V12.818A9.819,9.819,0,0,1,12.818,3Z" transform="translate(3.545 3.545)" fill="none" stroke="#fff" stroke-linecap="round" stroke-linejoin="round" stroke-width="4" fill-rule="evenodd"/>
    <path id="Tracé_2" data-name="Tracé 2" d="M8.12,11.1V22.882" transform="translate(9.596 13.118)" fill="none" stroke="#fff" stroke-linecap="round" stroke-linejoin="round" stroke-width="4"/>
    <g id="Groupe_1" data-name="Groupe 1" transform="translate(17.223 17.101)">
      <path id="Tracé_3" data-name="Tracé 3" d="M11.719,22.882V16.009A4.908,4.908,0,0,1,16.628,11.1h0a4.908,4.908,0,0,1,4.909,4.909v6.873" transform="translate(-3.374 -3.983)" fill="none" stroke="#fff" stroke-linecap="round" stroke-linejoin="round" stroke-width="4"/>
      <path id="Tracé_4" data-name="Tracé 4" d="M8.383,7.838a.491.491,0,1,0,.493.491.488.488,0,0,0-.493-.491" transform="translate(-7.894 -7.838)" fill="none" stroke="#fff" stroke-linecap="round" stroke-linejoin="round" stroke-width="4"/>
    </g>
    <path id="Tracé_5" data-name="Tracé 5" d="M0,0H52.364V52.364H0Z" transform="translate(0 52.364) rotate(-90)" fill="none"/>
  </g>
</svg>
