<svg id="Emails_Letter_Mail.1" data-name="Emails, Letter, Mail.1" xmlns="http://www.w3.org/2000/svg" width="52.364" height="52.364" viewBox="0 0 52.364 52.364">
  <g id="Groupe_2" data-name="Groupe 2" transform="translate(4.364 10.909)">
    <path id="Tracé_6" data-name="Tracé 6" d="M41.273,35.545H6.364A4.362,4.362,0,0,1,2,31.182V9.364A4.362,4.362,0,0,1,6.364,5H41.273a4.362,4.362,0,0,1,4.364,4.364V31.182A4.362,4.362,0,0,1,41.273,35.545Z" transform="translate(-2 -5)" fill="none" stroke="#fff" stroke-linecap="round" stroke-linejoin="round" stroke-width="4"/>
    <path id="Tracé_7" data-name="Tracé 7" d="M45.46,7.009,28.018,20.658A6.543,6.543,0,0,1,20,20.7L2.118,7" transform="translate(-1.861 -2.636)" fill="none" stroke="#fff" stroke-linecap="round" stroke-linejoin="round" stroke-width="4"/>
    <path id="Tracé_8" data-name="Tracé 8" d="M15.43,12.13,28.521,23.868" transform="translate(13.872 3.426)" fill="none" stroke="#fff" stroke-linecap="round" stroke-linejoin="round" stroke-width="4"/>
    <path id="Tracé_9" data-name="Tracé 9" d="M15.751,12.01,2.66,23.988" transform="translate(-1.22 3.285)" fill="none" stroke="#fff" stroke-linecap="round" stroke-linejoin="round" stroke-width="4"/>
  </g>
  <path id="Tracé_10" data-name="Tracé 10" d="M0,0H52.364V52.364H0Z" fill="none"/>
</svg>
